<svg width="32" height="32" viewBox="0 0 32 32" fill="none" xmlns="http://www.w3.org/2000/svg">
  <!-- Background circle -->
  <circle cx="16" cy="16" r="16" fill="#1C1C1C"/>
  
  <!-- Dashboard grid lines -->
  <rect x="6" y="8" width="20" height="16" rx="2" fill="none" stroke="#FFFFFF" stroke-width="1.5"/>
  
  <!-- Horizontal grid lines -->
  <line x1="6" y1="12" x2="26" y2="12" stroke="#FFFFFF" stroke-width="1" opacity="0.6"/>
  <line x1="6" y1="16" x2="26" y2="16" stroke="#FFFFFF" stroke-width="1" opacity="0.6"/>
  <line x1="6" y1="20" x2="26" y2="20" stroke="#FFFFFF" stroke-width="1" opacity="0.6"/>
  
  <!-- Vertical grid lines -->
  <line x1="10" y1="8" x2="10" y2="24" stroke="#FFFFFF" stroke-width="1" opacity="0.6"/>
  <line x1="14" y1="8" x2="14" y2="24" stroke="#FFFFFF" stroke-width="1" opacity="0.6"/>
  <line x1="18" y1="8" x2="18" y2="24" stroke="#FFFFFF" stroke-width="1" opacity="0.6"/>
  <line x1="22" y1="8" x2="22" y2="24" stroke="#FFFFFF" stroke-width="1" opacity="0.6"/>
  
  <!-- Chart bars -->
  <rect x="7" y="18" width="2" height="4" fill="#4AA785"/>
  <rect x="11" y="14" width="2" height="8" fill="#8A8CD9"/>
  <rect x="15" y="16" width="2" height="6" fill="#FFC555"/>
  <rect x="19" y="12" width="2" height="10" fill="#59A8D4"/>
  
  <!-- Chart line -->
  <path d="M7 20 L11 16 L15 18 L19 14 L23 16" stroke="#AECDE0" stroke-width="1.5" fill="none"/>
  
  <!-- Data points -->
  <circle cx="7" cy="20" r="1" fill="#AECDE0"/>
  <circle cx="11" cy="16" r="1" fill="#AECDE0"/>
  <circle cx="15" cy="18" r="1" fill="#AECDE0"/>
  <circle cx="19" cy="14" r="1" fill="#AECDE0"/>
  <circle cx="23" cy="16" r="1" fill="#AECDE0"/>
</svg>
